<svg xmlns:xlink="http://www.w3.org/1999/xlink" xmlns="http://www.w3.org/2000/svg" id="facebook-other" width="35"  height="35" ><defs><symbol id="icon-facebook" viewBox="0 0 32 32">
            <path fill="white" d="M13.816 32v0c-7.923-1.021-13.983-7.725-13.983-15.844 0-4.407 1.785-8.397 4.672-11.286l-0 0c2.862-2.889 6.83-4.678 11.217-4.678 0.013 0 0.026 0 0.039 0h0.080c8.797 0.016 15.922 7.151 15.922 15.95 0 0.003 0 0.006 0 0.010v-0.001c0 0.013 0 0.028 0 0.043 0 7.836-5.644 14.354-13.089 15.709l-0.098 0.015v-10.579h3.949l0.638-4.56h-4.56v-0.182c0-2.353 0.046-3.237 0.064-3.557 0-0.775 1.167-1.103 1.304-1.14h3.247v-4.095c-2.936 0-5.207 0.146-6.748 0.839s-2.325 1.879-2.672 3.912v4.168h-3.958v4.56h3.967v10.706z">
            </path>
        </symbol></defs>
                  <use xlink:href="#icon-facebook"></use>
                </svg>