<svg id="Symbol_Art" data-name="Symbol Art" xmlns="http://www.w3.org/2000/svg" viewBox="0 0 720 720"><defs><style>.cls-1{fill:none;}.cls-2{fill:#fff;}</style></defs><rect class="cls-1" width="720" height="720"/><polygon class="cls-2" points="280.24 82.16 242.44 198.07 120.52 198.19 191.18 295.44 313.19 295.44 350.99 179.53 280.24 82.16"/><path class="cls-2" d="M359.92,151.12l0-80.26a286.44,286.44,0,0,0-54.39,5.53Z"/><path class="cls-2" d="M161.27,295.45,85,270.62a286.27,286.27,0,0,0-11.56,53.44Z"/><path class="cls-2" d="M237.15,529,190,593.9a285.74,285.74,0,0,0,47.26,27.5Z"/><path class="cls-2" d="M482.7,529l47.15,65a286.26,286.26,0,0,0,40.76-36.45Z"/><path class="cls-2" d="M558.58,295.45l76.34-24.77a286.4,286.4,0,0,0-22.07-50Z"/><polygon class="cls-2" points="185.51 312.91 71.03 350.1 169.59 421.87 132.04 537.86 246.36 500.71 284.06 384.67 185.51 312.91"/><polygon class="cls-2" points="359.92 439.95 261.21 511.5 261.21 631.87 359.92 560.31 458.63 631.87 458.63 511.66 359.92 439.95"/><polygon class="cls-2" points="648.97 350.31 534.64 313.16 435.94 384.88 473.49 500.87 587.96 538.07 550.41 422.08 648.97 350.31"/><polygon class="cls-2" points="477.8 198.19 440.01 82.28 369.35 179.53 407.15 295.44 529.16 295.44 599.72 198.32 477.8 198.19"/><path class="cls-2" d="M359.92,649.14a289.69,289.69,0,0,0,71.7-9l-71.7-52.06Z"/><path class="cls-2" d="M634.91,449.35a289.48,289.48,0,0,0,13.63-71l-71.67,52.09Z"/><path class="cls-2" d="M529.88,126.08A289.85,289.85,0,0,0,466.61,91.2L494,175.45Z"/><path class="cls-2" d="M190,126.08a290.1,290.1,0,0,0-52.73,49.39l88.6,0Z"/><path class="cls-2" d="M84.94,449.35a289.41,289.41,0,0,0,30.68,65.41L143,430.49Z"/></svg>