<?xml version="1.0" encoding="utf-8"?>
<!-- Generator: Adobe Illustrator 26.3.1, SVG Export Plug-In . SVG Version: 6.00 Build 0)  -->
<svg version="1.1" xmlns="http://www.w3.org/2000/svg" xmlns:xlink="http://www.w3.org/1999/xlink" x="0px" y="0px"
	 viewBox="0 0 1240 310" style="enable-background:new 0 0 1240 310;" xml:space="preserve">
<style type="text/css">
	.st0{fill:#464646;}
	.st1{display:none;}
	.st2{display:inline;fill:#FFFFFF;}
	.st3{fill:#004E9A;}
	.st4{fill:#187BC0;}
	.st5{fill:#1CA6DF;}
	.st6{fill:#DE9027;}
	.st7{fill:#D15420;}
	.st8{fill:#669B41;}
	.st9{fill:#A96728;}
	.st10{fill:#914115;}
	.st11{fill:#326820;}
	.st12{fill:#0066A6;}
	.st13{display:inline;}
	.st14{fill:#231F20;}
	.st15{opacity:0.7;fill:#231F20;}
	.st16{opacity:0.7;}
	.st17{fill:#FFFFFF;}
	.st18{opacity:0.7;fill:#FFFFFF;}
	.st19{fill:none;}
	.st20{fill:#787878;}
</style>
<g id="Oklahoma_Text">
	<g id="Dark_OKLA">
		<path class="st0" d="M455.22,98.25l23.43-30.15c0.33-0.43,0.39-1,0.15-1.49c-0.24-0.48-0.72-0.79-1.27-0.79h-15.92
			c-0.45,0-0.88,0.21-1.14,0.58l-21.49,29.63V67.23c0-0.78-0.63-1.41-1.41-1.41h-13.08c-0.78,0-1.41,0.63-1.41,1.41v65.38
			c0,0.78,0.63,1.41,1.41,1.41h13.08c0.78,0,1.41-0.63,1.41-1.41V100.2l34.71,46.35c0.27,0.32,0.66,0.5,1.08,0.5h15.61
			c0.56,0,1.06-0.33,1.28-0.83c0.23-0.51,0.14-1.1-0.23-1.51L455.22,98.25z"/>
		<path class="st0" d="M897.03,131.99l-32.8-67.06c-0.23-0.48-0.72-0.79-1.27-0.79h-1.89c-0.54,0-1.03,0.31-1.27,0.79L827,131.99
			c-0.21,0.44-0.19,0.96,0.07,1.37c0.26,0.41,0.71,0.66,1.2,0.66h14.02c0.55,0,1.05-0.32,1.29-0.82l5.21-11.3h26.57l5.31,11.31
			c0.23,0.5,0.73,0.81,1.28,0.81h13.81c0.48,0,0.94-0.25,1.2-0.66C897.21,132.94,897.24,132.43,897.03,131.99z M853.98,109.48
			l8.04-17.65l8.12,17.65H853.98z"/>
		<path class="st0" d="M532.81,120.86h-28.19V67.23c0-0.78-0.63-1.41-1.41-1.41h-13.08c-0.78,0-1.41,0.63-1.41,1.41v65.38
			c0,0.78,0.63,1.41,1.41,1.41h38.34c0.65,0,1.22-0.45,1.37-1.08l4.33-10.33c0.1-0.42,0-0.87-0.26-1.21
			C533.66,121.06,533.25,120.86,532.81,120.86"/>
		<path class="st0" d="M667.79,65.82h-13.18c-0.78,0-1.41,0.63-1.41,1.41v27.29h-26.49V67.23c0-0.78-0.63-1.41-1.42-1.41h-13.07
			c-0.78,0-1.41,0.63-1.41,1.41v65.38c0,0.78,0.63,1.41,1.41,1.41h13.07c0.78,0,1.42-0.63,1.42-1.41v-24.93h26.49v24.93
			c0,0.78,0.63,1.41,1.41,1.41h13.18c0.78,0,1.41-0.63,1.41-1.41V67.23C669.2,66.45,668.57,65.82,667.79,65.82z"/>
		<path class="st0" d="M809.13,64.98h-1.69c-0.47,0-0.92,0.24-1.18,0.63l-21.6,32.7l-21.7-32.7c-0.26-0.4-0.7-0.63-1.18-0.63h-1.58
			c-0.69,0-1.28,0.49-1.4,1.17l-11.7,66.22c-0.07,0.42,0.04,0.83,0.31,1.15c0.27,0.32,0.66,0.5,1.08,0.5h12.76
			c0.69,0,1.28-0.5,1.39-1.17l5.95-34.81l14.9,22.07c0.52,0.78,1.82,0.78,2.34,0l14.9-22.07l5.94,34.81
			c0.12,0.68,0.71,1.17,1.4,1.17h12.75c0.42,0,0.81-0.18,1.08-0.5s0.38-0.74,0.31-1.15l-11.7-66.22
			C810.4,65.47,809.81,64.98,809.13,64.98"/>
		<path class="st0" d="M381.34,135.21c-19.52,0-35.4-15.88-35.4-35.39s15.88-35.39,35.4-35.39c19.52,0,35.39,15.88,35.39,35.39
			S400.85,135.21,381.34,135.21 M381.34,79.29c-11.32,0-20.53,9.21-20.53,20.53c0,11.32,9.21,20.53,20.53,20.53
			c11.32,0,20.53-9.21,20.53-20.53C401.86,88.5,392.66,79.29,381.34,79.29"/>
		<path class="st0" d="M710.88,135.21c-19.52,0-35.4-15.88-35.4-35.39s15.88-35.39,35.4-35.39c19.52,0,35.39,15.88,35.39,35.39
			S730.39,135.21,710.88,135.21 M710.88,79.29c-11.32,0-20.53,9.21-20.53,20.53c0,11.32,9.21,20.53,20.53,20.53
			c11.32,0,20.53-9.21,20.53-20.53C731.4,88.5,722.2,79.29,710.88,79.29"/>
		<path class="st0" d="M606.29,131.99l-32.8-67.06c-0.23-0.48-0.72-0.79-1.27-0.79h-1.89c-0.54,0-1.03,0.31-1.27,0.79l-32.79,67.06
			c-0.21,0.44-0.19,0.96,0.07,1.37c0.26,0.41,0.71,0.66,1.2,0.66h14.02c0.55,0,1.05-0.32,1.29-0.82l5.21-11.3h26.57l5.31,11.31
			c0.23,0.5,0.73,0.81,1.28,0.81h13.81c0.48,0,0.94-0.25,1.2-0.66C606.48,132.94,606.5,132.43,606.29,131.99z M563.24,109.48
			l8.04-17.65l8.12,17.65H563.24z"/>
	</g>
	<g id="White_OKLA" class="st1">
		<path class="st2" d="M455.22,98.25l23.43-30.15c0.33-0.43,0.39-1,0.15-1.49c-0.24-0.48-0.72-0.79-1.27-0.79h-15.92
			c-0.45,0-0.88,0.21-1.14,0.58l-21.49,29.63V67.23c0-0.78-0.63-1.41-1.41-1.41h-13.08c-0.78,0-1.41,0.63-1.41,1.41v65.38
			c0,0.78,0.63,1.41,1.41,1.41h13.08c0.78,0,1.41-0.63,1.41-1.41V100.2l34.71,46.35c0.27,0.32,0.66,0.5,1.08,0.5h15.61
			c0.56,0,1.06-0.33,1.28-0.83c0.23-0.51,0.14-1.1-0.23-1.51L455.22,98.25z"/>
		<path class="st2" d="M897.03,131.99l-32.8-67.06c-0.23-0.48-0.72-0.79-1.27-0.79h-1.89c-0.54,0-1.03,0.31-1.27,0.79L827,131.99
			c-0.21,0.44-0.19,0.96,0.07,1.37c0.26,0.41,0.71,0.66,1.2,0.66h14.02c0.55,0,1.05-0.32,1.29-0.82l5.21-11.3h26.57l5.31,11.31
			c0.23,0.5,0.73,0.81,1.28,0.81h13.81c0.48,0,0.94-0.25,1.2-0.66C897.21,132.94,897.24,132.43,897.03,131.99z M853.98,109.48
			l8.04-17.65l8.12,17.65H853.98z"/>
		<path class="st2" d="M532.81,120.86h-28.19V67.23c0-0.78-0.63-1.41-1.41-1.41h-13.08c-0.78,0-1.41,0.63-1.41,1.41v65.38
			c0,0.78,0.63,1.41,1.41,1.41h38.34c0.65,0,1.22-0.45,1.37-1.08l4.33-10.33c0.1-0.42,0-0.87-0.26-1.21
			C533.66,121.06,533.25,120.86,532.81,120.86"/>
		<path class="st2" d="M667.79,65.82h-13.18c-0.78,0-1.41,0.63-1.41,1.41v27.29h-26.49V67.23c0-0.78-0.63-1.41-1.42-1.41h-13.07
			c-0.78,0-1.41,0.63-1.41,1.41v65.38c0,0.78,0.63,1.41,1.41,1.41h13.07c0.78,0,1.42-0.63,1.42-1.41v-24.93h26.49v24.93
			c0,0.78,0.63,1.41,1.41,1.41h13.18c0.78,0,1.41-0.63,1.41-1.41V67.23C669.2,66.45,668.57,65.82,667.79,65.82z"/>
		<path class="st2" d="M809.13,64.98h-1.69c-0.47,0-0.92,0.24-1.18,0.63l-21.6,32.7l-21.7-32.7c-0.26-0.4-0.7-0.63-1.18-0.63h-1.58
			c-0.69,0-1.28,0.49-1.4,1.17l-11.7,66.22c-0.07,0.42,0.04,0.83,0.31,1.15c0.27,0.32,0.66,0.5,1.08,0.5h12.76
			c0.69,0,1.28-0.5,1.39-1.17l5.95-34.81l14.9,22.07c0.52,0.78,1.82,0.78,2.34,0l14.9-22.07l5.94,34.81
			c0.12,0.68,0.71,1.17,1.4,1.17h12.75c0.42,0,0.81-0.18,1.08-0.5s0.38-0.74,0.31-1.15l-11.7-66.22
			C810.4,65.47,809.81,64.98,809.13,64.98"/>
		<path class="st2" d="M381.34,135.21c-19.52,0-35.4-15.88-35.4-35.39s15.88-35.39,35.4-35.39c19.52,0,35.39,15.88,35.39,35.39
			S400.85,135.21,381.34,135.21 M381.34,79.29c-11.32,0-20.53,9.21-20.53,20.53c0,11.32,9.21,20.53,20.53,20.53
			c11.32,0,20.53-9.21,20.53-20.53C401.86,88.5,392.66,79.29,381.34,79.29"/>
		<path class="st2" d="M710.88,135.21c-19.52,0-35.4-15.88-35.4-35.39s15.88-35.39,35.4-35.39c19.52,0,35.39,15.88,35.39,35.39
			S730.39,135.21,710.88,135.21 M710.88,79.29c-11.32,0-20.53,9.21-20.53,20.53c0,11.32,9.21,20.53,20.53,20.53
			c11.32,0,20.53-9.21,20.53-20.53C731.4,88.5,722.2,79.29,710.88,79.29"/>
		<path class="st2" d="M606.29,131.99l-32.8-67.06c-0.23-0.48-0.72-0.79-1.27-0.79h-1.89c-0.54,0-1.03,0.31-1.27,0.79l-32.79,67.06
			c-0.21,0.44-0.19,0.96,0.07,1.37c0.26,0.41,0.71,0.66,1.2,0.66h14.02c0.55,0,1.05-0.32,1.29-0.82l5.21-11.3h26.57l5.31,11.31
			c0.23,0.5,0.73,0.81,1.28,0.81h13.81c0.48,0,0.94-0.25,1.2-0.66C606.48,132.94,606.5,132.43,606.29,131.99z M563.24,109.48
			l8.04-17.65l8.12,17.65H563.24z"/>
	</g>
</g>
<g id="Colored_Stars">
	<g id="Full_Color">
		<polygon class="st3" points="91.81,72.18 110.28,15.52 144.87,63.12 126.39,119.77 		"/>
		<polygon class="st4" points="91.81,72.18 32.22,72.24 66.75,119.77 126.39,119.77 		"/>
		<g>
			<path class="st5" d="M149.23,49.23L149.25,10c-9,0.05-17.9,0.97-26.59,2.7L149.23,49.23z"/>
		</g>
		<g>
			<path class="st4" d="M52.13,119.78l-37.3-12.14c-2.73,8.57-4.61,17.32-5.65,26.12L52.13,119.78z"/>
		</g>
		<g>
			<path class="st6" d="M89.22,233.92l-23.07,31.73c7.31,5.25,15.05,9.73,23.1,13.44L89.22,233.92z"/>
		</g>
		<g>
			<path class="st7" d="M209.24,233.92l23.05,31.75c7.25-5.33,13.91-11.3,19.92-17.81L209.24,233.92z"/>
		</g>
		<g>
			<path class="st8" d="M246.33,119.78l37.31-12.11c-2.83-8.54-6.45-16.72-10.79-24.45L246.33,119.78z"/>
		</g>
		<polygon class="st9" points="56.2,181.57 8.03,146.49 63.98,128.31 112.15,163.39 		"/>
		<polygon class="st6" points="56.2,181.57 37.85,238.26 93.73,220.1 112.15,163.39 		"/>
		<polygon class="st10" points="149.23,249.24 100.99,284.21 100.99,225.38 149.23,190.4 		"/>
		<polygon class="st7" points="149.23,249.24 197.48,284.21 197.48,225.46 149.23,190.4 		"/>
		<polygon class="st11" points="242.34,181.67 260.69,238.36 204.74,220.18 186.39,163.49 		"/>
		<polygon class="st8" points="242.34,181.67 290.51,146.59 234.63,128.43 186.39,163.49 		"/>
		<polygon class="st12" points="206.85,72.24 266.44,72.3 231.95,119.77 172.31,119.77 		"/>
		<polygon class="st5" points="206.85,72.24 188.38,15.58 153.84,63.12 172.31,119.77 		"/>
		<g>
			<path class="st10" d="M149.23,292.65c12.1,0,23.84-1.52,35.04-4.38l-35.04-25.45V292.65z"/>
		</g>
		<g>
			<path class="st11" d="M283.64,195c3.74-11.5,5.92-23.14,6.66-34.68l-35.03,25.46L283.64,195z"/>
		</g>
		<g>
			<path class="st12" d="M232.3,36.99c-9.79-7.11-20.18-12.78-30.92-17.05l13.39,41.18L232.3,36.99z"/>
		</g>
		<g>
			<path class="st3" d="M66.16,36.99c-9.79,7.11-18.39,15.24-25.77,24.14l43.31-0.01L66.16,36.99z"/>
		</g>
		<g>
			<path class="st9" d="M14.82,195c3.74,11.5,8.81,22.2,15,31.97l13.37-41.19L14.82,195z"/>
		</g>
	</g>
	<g id="Black" class="st1">
		<g class="st13">
			<polygon class="st14" points="91.42,71.69 110.05,14.57 144.92,62.56 126.29,119.68 			"/>
			<polygon class="st15" points="91.42,71.69 31.34,71.76 66.16,119.68 126.29,119.68 			"/>
			<g class="st16">
				<path class="st14" d="M149.32,48.56L149.34,9c-9.07,0.05-18.05,0.98-26.81,2.72L149.32,48.56z"/>
			</g>
			<g class="st16">
				<path class="st14" d="M51.42,119.69L13.8,107.45c-2.76,8.64-4.65,17.46-5.69,26.34L51.42,119.69z"/>
			</g>
			<g class="st16">
				<path class="st14" d="M88.81,234.78l-23.26,31.99c7.37,5.29,15.17,9.82,23.29,13.55L88.81,234.78z"/>
			</g>
			<g class="st16">
				<path class="st14" d="M209.83,234.78l23.24,32.01c7.31-5.37,14.02-11.4,20.09-17.96L209.83,234.78z"/>
			</g>
			<g class="st16">
				<path class="st14" d="M247.23,119.69l37.62-12.21c-2.85-8.61-6.51-16.86-10.88-24.65L247.23,119.69z"/>
			</g>
			<polygon class="st14" points="55.52,181.99 6.94,146.62 63.36,128.29 111.94,163.66 			"/>
			<polygon class="st15" points="55.52,181.99 37.01,239.16 93.35,220.85 111.94,163.66 			"/>
			<polygon class="st14" points="149.32,250.22 100.67,285.49 100.67,226.17 149.32,190.9 			"/>
			<polygon class="st15" points="149.32,250.22 197.97,285.49 197.97,226.25 149.32,190.9 			"/>
			<polygon class="st14" points="243.2,182.09 261.71,239.26 205.29,220.93 186.78,163.76 			"/>
			<polygon class="st15" points="243.2,182.09 291.78,146.72 235.43,128.42 186.78,163.76 			"/>
			<polygon class="st14" points="207.42,71.76 267.51,71.82 232.73,119.68 172.6,119.68 			"/>
			<polygon class="st15" points="207.42,71.76 188.79,14.63 153.97,62.56 172.6,119.68 			"/>
			<g>
				<path class="st14" d="M149.32,294c12.2,0,24.03-1.54,35.33-4.42l-35.33-25.66V294z"/>
			</g>
			<g>
				<path class="st14" d="M284.85,195.53c3.77-11.6,5.97-23.33,6.72-34.97l-35.32,25.67L284.85,195.53z"/>
			</g>
			<g>
				<path class="st14" d="M233.08,36.22c-9.87-7.17-20.35-12.88-31.18-17.19l13.5,41.53L233.08,36.22z"/>
			</g>
			<g>
				<path class="st14" d="M65.56,36.22c-9.87,7.17-18.54,15.37-25.99,24.34l43.67-0.01L65.56,36.22z"/>
			</g>
			<g>
				<path class="st14" d="M13.8,195.53c3.77,11.6,8.89,22.38,15.12,32.24l13.49-41.53L13.8,195.53z"/>
			</g>
		</g>
	</g>
	<g id="White_Transparent" class="st1">
		<g class="st13">
			<polygon class="st17" points="91.89,72.25 110.38,15.53 145.01,63.18 126.51,119.91 			"/>
			<polygon class="st18" points="91.89,72.25 32.22,72.31 66.8,119.91 126.51,119.91 			"/>
			<g class="st16">
				<path class="st17" d="M149.38,49.28L149.39,10c-9.01,0.05-17.92,0.97-26.62,2.71L149.38,49.28z"/>
			</g>
			<g class="st16">
				<path class="st17" d="M52.16,119.91l-37.35-12.15c-2.74,8.58-4.61,17.34-5.65,26.15L52.16,119.91z"/>
			</g>
			<g class="st16">
				<path class="st17" d="M89.3,234.2l-23.1,31.77c7.32,5.26,15.07,9.75,23.13,13.46L89.3,234.2z"/>
			</g>
			<g class="st16">
				<path class="st17" d="M209.47,234.2l23.08,31.78c7.26-5.34,13.93-11.32,19.95-17.84L209.47,234.2z"/>
			</g>
			<g class="st16">
				<path class="st17" d="M246.6,119.91l37.36-12.12c-2.83-8.55-6.46-16.74-10.8-24.48L246.6,119.91z"/>
			</g>
			<polygon class="st17" points="56.23,181.78 8,146.66 64.02,128.45 112.26,163.57 			"/>
			<polygon class="st18" points="56.23,181.78 37.86,238.54 93.8,220.36 112.26,163.57 			"/>
			<polygon class="st17" points="149.38,249.53 101.07,284.55 101.07,225.64 149.38,190.62 			"/>
			<polygon class="st18" points="149.38,249.53 197.69,284.55 197.69,225.72 149.38,190.62 			"/>
			<polygon class="st17" points="242.6,181.88 260.98,238.64 204.96,220.44 186.58,163.68 			"/>
			<polygon class="st18" points="242.6,181.88 290.83,146.76 234.89,128.58 186.58,163.68 			"/>
			<polygon class="st17" points="207.07,72.32 266.73,72.38 232.2,119.91 172.49,119.91 			"/>
			<polygon class="st18" points="207.07,72.32 188.57,15.59 153.99,63.18 172.49,119.91 			"/>
			<g>
				<path class="st17" d="M149.38,293c12.11,0,23.86-1.52,35.08-4.39l-35.08-25.48V293z"/>
			</g>
			<g>
				<path class="st17" d="M283.95,195.23c3.74-11.52,5.92-23.17,6.67-34.72L255.55,186L283.95,195.23z"/>
			</g>
			<g>
				<path class="st17" d="M232.55,37.02c-9.8-7.12-20.2-12.79-30.96-17.07L215,61.19L232.55,37.02z"/>
			</g>
			<g>
				<path class="st17" d="M66.21,37.02C56.41,44.14,47.8,52.28,40.4,61.2l43.36-0.01L66.21,37.02z"/>
			</g>
			<g>
				<path class="st17" d="M14.81,195.23c3.74,11.52,8.82,22.23,15.01,32.01L43.21,186L14.81,195.23z"/>
			</g>
		</g>
	</g>
	<g id="White_Solid" class="st1">
		<g class="st13">
			<polygon class="st17" points="91.89,72.25 110.38,15.53 145.01,63.18 126.51,119.91 			"/>
			<polygon class="st17" points="91.89,72.25 32.22,72.31 66.8,119.91 126.51,119.91 			"/>
			<g>
				<path class="st17" d="M149.38,49.28L149.39,10c-9.01,0.05-17.92,0.97-26.62,2.71L149.38,49.28z"/>
			</g>
			<g>
				<path class="st17" d="M52.16,119.91l-37.35-12.15c-2.74,8.58-4.61,17.34-5.65,26.15L52.16,119.91z"/>
			</g>
			<g>
				<path class="st17" d="M89.3,234.2l-23.1,31.77c7.32,5.26,15.07,9.75,23.13,13.46L89.3,234.2z"/>
			</g>
			<g>
				<path class="st17" d="M209.47,234.2l23.08,31.78c7.26-5.34,13.93-11.32,19.95-17.84L209.47,234.2z"/>
			</g>
			<g>
				<path class="st17" d="M246.6,119.91l37.36-12.12c-2.83-8.55-6.46-16.74-10.8-24.48L246.6,119.91z"/>
			</g>
			<polygon class="st17" points="56.23,181.78 8,146.66 64.02,128.45 112.26,163.57 			"/>
			<polygon class="st17" points="56.23,181.78 37.86,238.54 93.8,220.36 112.26,163.57 			"/>
			<polygon class="st17" points="149.38,249.53 101.07,284.55 101.07,225.64 149.38,190.62 			"/>
			<polygon class="st17" points="149.38,249.53 197.69,284.55 197.69,225.72 149.38,190.62 			"/>
			<polygon class="st17" points="242.6,181.88 260.98,238.64 204.96,220.44 186.58,163.68 			"/>
			<polygon class="st17" points="242.6,181.88 290.83,146.76 234.89,128.58 186.58,163.68 			"/>
			<polygon class="st17" points="207.07,72.32 266.73,72.38 232.2,119.91 172.49,119.91 			"/>
			<polygon class="st17" points="207.07,72.32 188.57,15.59 153.99,63.18 172.49,119.91 			"/>
			<g>
				<path class="st17" d="M149.38,293c12.11,0,23.86-1.52,35.08-4.39l-35.08-25.48V293z"/>
			</g>
			<g>
				<path class="st17" d="M283.95,195.23c3.74-11.52,5.92-23.17,6.67-34.72L255.55,186L283.95,195.23z"/>
			</g>
			<g>
				<path class="st17" d="M232.55,37.02c-9.8-7.12-20.2-12.79-30.96-17.07L215,61.19L232.55,37.02z"/>
			</g>
			<g>
				<path class="st17" d="M66.21,37.02C56.41,44.14,47.8,52.28,40.4,61.2l43.36-0.01L66.21,37.02z"/>
			</g>
			<g>
				<path class="st17" d="M14.81,195.23c3.74,11.52,8.82,22.23,15.01,32.01L43.21,186L14.81,195.23z"/>
			</g>
		</g>
	</g>
	<g id="Red_Clay" class="st1">
		<g id="Guides_00000067941058177910471870000012980686072162829481_">
		</g>
		<g id="Symbol_Art_00000139266758661605441180000011949614745225438128_" class="st13">
			<rect x="-28" y="-26" class="st19" width="355" height="355"/>
			<g>
				<polygon class="st10" points="91.39,71.77 110.02,14.61 144.91,62.62 126.27,119.78 				"/>
				<polygon class="st7" points="91.34,71.62 31.46,71.68 66.16,119.45 126.09,119.45 				"/>
				<g>
					<path class="st7" d="M149.5,48.62l0.01-39.57c-9.08,0.05-18.06,0.98-26.82,2.73L149.5,48.62z"/>
				</g>
				<g>
					<path class="st7" d="M51.37,119.78l-37.63-12.24c-2.76,8.65-4.65,17.47-5.69,26.35L51.37,119.78z"/>
				</g>
				<g>
					<path class="st7" d="M88.82,234.93l-23.27,32c7.37,5.3,15.18,9.82,23.3,13.56L88.82,234.93z"/>
				</g>
				<g>
					<path class="st7" d="M209.85,234.93l23.25,32.02c7.31-5.37,14.03-11.4,20.1-17.97L209.85,234.93z"/>
				</g>
				<g>
					<path class="st7" d="M247.26,119.78l37.64-12.21c-2.85-8.62-6.51-16.87-10.88-24.67L247.26,119.78z"/>
				</g>
				<polygon class="st10" points="55.47,182.11 6.87,146.73 63.32,128.39 111.91,163.77 				"/>
				<polygon class="st7" points="55.47,182.11 36.95,239.3 93.32,220.98 111.91,163.77 				"/>
				<polygon class="st10" points="149.5,250.41 100.69,285.8 100.69,226.27 149.5,190.88 				"/>
				<polygon class="st7" points="149.01,250.41 197.82,285.79 197.82,226.35 149.01,190.89 				"/>
				<polygon class="st10" points="243.23,182.22 261.75,239.4 205.31,221.06 186.79,163.87 				"/>
				<polygon class="st7" points="243.23,182.22 291.83,146.83 235.46,128.51 186.79,163.87 				"/>
				<polygon class="st10" points="207.46,72.12 267.42,72.18 232.72,119.94 172.72,119.94 				"/>
				<polygon class="st7" points="207.43,71.83 188.8,14.68 153.96,62.62 172.6,119.78 				"/>
				<g>
					<path class="st10" d="M149.5,294.17c12.2,0,24.05-1.54,35.35-4.42l-35.35-25.67V294.17z"/>
				</g>
				<g>
					<path class="st10" d="M284.9,195.66c3.77-11.61,5.97-23.34,6.72-34.98l-35.34,25.68L284.9,195.66z"/>
				</g>
				<g>
					<path class="st10" d="M233.11,36.27c-9.87-7.17-20.35-12.89-31.2-17.2l13.51,41.54L233.11,36.27z"/>
				</g>
				<g>
					<path class="st10" d="M65.52,36.43c-9.87,7.17-18.55,15.37-26,24.35l43.68-0.01L65.52,36.43z"/>
				</g>
				<g>
					<path class="st10" d="M13.73,195.66c3.77,11.61,8.89,22.39,15.13,32.25l13.49-41.55L13.73,195.66z"/>
				</g>
			</g>
		</g>
	</g>
	<g id="Prairie_Gold" class="st1">
		<g class="st13">
			<g id="Guides_00000022547161808627407390000014442529331544752046_" class="st1">
			</g>
			<g id="Symbol_Art_00000123411561402153368170000003358509835555280280_">
				<rect x="-26" y="-25" class="st19" width="351" height="351"/>
				<g>
					<polygon class="st9" points="92.29,71.7 110.72,15.19 145.21,62.66 126.78,119.17 					"/>
					<polygon class="st6" points="92.24,72.01 33.04,72.07 67.35,119.3 126.6,119.3 					"/>
					<g>
						<path class="st6" d="M149.5,48.81l0.01-39.13c-8.97,0.05-17.85,0.97-26.52,2.7L149.5,48.81z"/>
					</g>
					<g>
						<path class="st6" d="M52.72,119.17l-37.21-12.1c-2.73,8.55-4.6,17.28-5.63,26.05L52.72,119.17z"/>
					</g>
					<g>
						<path class="st6" d="M89.51,233.02L66.5,264.67c7.29,5.24,15.01,9.71,23.04,13.41L89.51,233.02z"/>
					</g>
					<g>
						<path class="st6" d="M209.41,233.02l22.99,31.66c7.23-5.31,13.87-11.28,19.87-17.76L209.41,233.02z"/>
					</g>
					<g>
						<path class="st6" d="M246.41,119.17l37.22-12.08c-2.82-8.52-6.43-16.68-10.76-24.39L246.41,119.17z"/>
					</g>
					<polygon class="st9" points="56.77,180.8 8.73,145.81 64.53,127.68 112.58,162.67 					"/>
					<polygon class="st6" points="56.77,180.8 38.47,237.35 94.2,219.24 112.58,162.67 					"/>
					<polygon class="st9" points="149.5,248.33 101.24,283.32 101.24,224.47 149.5,189.47 					"/>
					<polygon class="st6" points="149.5,248.33 197.76,283.31 197.76,224.54 149.5,189.48 					"/>
					<polygon class="st9" points="242.42,180.9 260.73,237.45 204.92,219.31 186.61,162.77 					"/>
					<polygon class="st6" points="242.42,180.9 290.47,145.92 234.74,127.81 186.61,162.77 					"/>
					<polygon class="st9" points="207.06,72.01 266.34,72.07 232.03,119.3 172.7,119.3 					"/>
					<polygon class="st6" points="207.03,71.76 188.6,15.25 154.16,62.66 172.58,119.17 					"/>
					<g>
						<path class="st9" d="M149.5,291.6c12.07,0,23.78-1.52,34.95-4.37l-34.95-25.38V291.6z"/>
					</g>
					<g>
						<path class="st9" d="M283.62,194.2c3.73-11.48,5.9-23.08,6.64-34.59L255.32,185L283.62,194.2z"/>
					</g>
					<g>
						<path class="st9" d="M232.42,36.6c-9.76-7.09-20.12-12.74-30.84-17.01l13.36,41.08L232.42,36.6z"/>
					</g>
					<g>
						<path class="st9" d="M66.71,36.72C56.95,43.82,48.37,51.92,41,60.8l43.19-0.01L66.71,36.72z"/>
					</g>
					<g>
						<path class="st9" d="M15.51,194.2c3.73,11.48,8.79,22.14,14.96,31.89L43.8,185L15.51,194.2z"/>
					</g>
				</g>
			</g>
		</g>
	</g>
	<g id="Sky_Blue" class="st1">
		<g class="st13">
			<g id="Guides_00000027600615370350854200000007616332613429351085_" class="st1">
			</g>
			<g id="Symbol_Art_00000114065911635520370110000002334952313024502163_">
				<rect x="-28" y="-26" class="st19" width="355" height="355"/>
				<g>
					<polygon class="st12" points="91.61,71.48 110.25,14.33 145.13,62.34 126.5,119.5 					"/>
					<polygon class="st5" points="91.56,71.62 31.68,71.68 66.39,119.45 126.31,119.45 					"/>
					<g>
						<path class="st5" d="M149.5,48.33l0.01-39.57c-9.08,0.05-18.06,0.98-26.82,2.73L149.5,48.33z"/>
					</g>
					<g>
						<path class="st5" d="M51.59,119.5l-37.63-12.24c-2.76,8.65-4.65,17.47-5.69,26.35L51.59,119.5z"/>
					</g>
					<g>
						<path class="st5" d="M88.82,234.64l-23.27,32c7.37,5.3,15.18,9.82,23.3,13.56L88.82,234.64z"/>
					</g>
					<g>
						<path class="st5" d="M210.07,234.64l23.25,32.02c7.31-5.37,14.03-11.4,20.1-17.97L210.07,234.64z"/>
					</g>
					<g>
						<path class="st5" d="M247.49,119.5l37.64-12.21c-2.85-8.62-6.51-16.87-10.88-24.67L247.49,119.5z"/>
					</g>
					<polygon class="st12" points="55.69,181.83 7.1,146.44 63.54,128.1 112.14,163.49 					"/>
					<polygon class="st5" points="55.69,181.83 37.18,239.02 93.55,220.7 112.14,163.49 					"/>
					<polygon class="st12" points="149.5,250.12 100.69,285.51 100.69,225.99 149.5,190.6 					"/>
					<polygon class="st5" points="149.5,250.12 198.31,285.51 198.31,226.06 149.5,190.6 					"/>
					<polygon class="st12" points="243.46,181.93 261.97,239.12 205.53,220.78 187.01,163.59 					"/>
					<polygon class="st5" points="243.46,181.93 292.05,146.54 235.68,128.23 187.01,163.59 					"/>
					<polygon class="st12" points="207.69,71.62 267.65,71.68 232.95,119.45 172.95,119.45 					"/>
					<polygon class="st5" points="207.66,71.55 189.03,14.39 154.19,62.34 172.82,119.5 					"/>
					<g>
						<path class="st12" d="M149.5,293.88c12.2,0,24.05-1.54,35.35-4.42L149.5,263.8V293.88z"/>
					</g>
					<g>
						<path class="st12" d="M285.12,195.38c3.77-11.61,5.97-23.34,6.72-34.98l-35.34,25.68L285.12,195.38z"/>
					</g>
					<g>
						<path class="st12" d="M233.34,35.99c-9.87-7.17-20.35-12.89-31.2-17.2l13.51,41.54L233.34,35.99z"/>
					</g>
					<g>
						<path class="st12" d="M65.74,35.93c-9.87,7.17-18.55,15.37-26,24.35l43.68-0.01L65.74,35.93z"/>
					</g>
					<g>
						<path class="st12" d="M13.96,195.38c3.77,11.61,8.89,22.39,15.13,32.25l13.49-41.55L13.96,195.38z"/>
					</g>
				</g>
			</g>
		</g>
	</g>
	<g id="Slate_Grey" class="st1">
		<g class="st13">
			<g id="Guides_00000028321156331748735860000017508445602621861041_" class="st1">
			</g>
			<g id="Symbol_Art_00000103988025686094716620000015784562656394524058_">
				<rect x="-29" y="-27" class="st19" width="355" height="355"/>
				<g>
					<polygon class="st0" points="90.62,70.77 109.26,13.62 144.15,61.63 125.51,118.79 					"/>
					<polygon class="st20" points="90.58,70.62 30.7,70.68 65.4,118.45 125.32,118.45 					"/>
					<g>
						<path class="st20" d="M148.5,47.62l0.01-39.57c-9.08,0.05-18.06,0.98-26.82,2.73L148.5,47.62z"/>
					</g>
					<g>
						<path class="st20" d="M50.6,118.79l-37.63-12.24c-2.76,8.65-4.65,17.47-5.69,26.35L50.6,118.79z"/>
					</g>
					<g>
						<path class="st20" d="M87.82,233.93l-23.27,32c7.37,5.3,15.18,9.82,23.3,13.56L87.82,233.93z"/>
					</g>
					<g>
						<path class="st20" d="M209.09,233.93l23.25,32.02c7.31-5.37,14.03-11.4,20.1-17.97L209.09,233.93z"/>
					</g>
					<g>
						<path class="st20" d="M246.5,118.79l37.64-12.21c-2.85-8.62-6.51-16.87-10.88-24.67L246.5,118.79z"/>
					</g>
					<polygon class="st0" points="54.71,181.12 6.11,145.73 62.56,127.4 111.15,162.78 					"/>
					<polygon class="st20" points="54.71,181.12 36.19,238.31 92.56,219.99 111.15,162.78 					"/>
					<polygon class="st0" points="148.5,249.41 99.69,284.8 99.69,225.28 148.5,189.89 					"/>
					<polygon class="st20" points="148.5,249.41 197.31,284.8 197.31,225.35 148.5,189.89 					"/>
					<polygon class="st0" points="242.47,181.22 260.99,238.41 204.55,220.07 186.03,162.88 					"/>
					<polygon class="st20" points="242.47,181.22 291.07,145.84 234.7,127.52 186.03,162.88 					"/>
					<polygon class="st0" points="206.7,71.12 266.66,71.18 231.96,118.94 171.96,118.94 					"/>
					<polygon class="st20" points="206.67,70.84 188.04,13.68 153.2,61.63 171.84,118.79 					"/>
					<g>
						<path class="st0" d="M148.5,293.18c12.2,0,24.05-1.54,35.35-4.42l-35.35-25.67V293.18z"/>
					</g>
					<g>
						<path class="st0" d="M284.13,194.67c3.77-11.61,5.97-23.34,6.72-34.98l-35.34,25.68L284.13,194.67z"/>
					</g>
					<g>
						<path class="st0" d="M232.35,35.28c-9.87-7.17-20.35-12.89-31.2-17.2l13.51,41.54L232.35,35.28z"/>
					</g>
					<g>
						<path class="st0" d="M64.75,35.43c-9.87,7.17-18.55,15.37-26,24.35l43.68-0.01L64.75,35.43z"/>
					</g>
					<g>
						<path class="st0" d="M12.97,194.67c3.77,11.61,8.89,22.39,15.13,32.25l13.49-41.55L12.97,194.67z"/>
					</g>
				</g>
			</g>
		</g>
	</g>
	<g id="Water_Blue" class="st1">
		<g class="st13">
			<g id="Guides_00000073697468934921441330000013703336149656479889_" class="st1">
			</g>
			<g id="Symbol_Art_00000080201043313169625360000003087813954212365246_">
				<rect x="-26" y="-25" class="st19" width="352" height="352"/>
				<g>
					<polygon class="st3" points="92.36,71.76 110.84,15.09 145.43,62.7 126.95,119.37 					"/>
					<polygon class="st4" points="92.31,71.8 32.94,71.86 67.35,119.22 126.76,119.22 					"/>
					<g>
						<path class="st4" d="M150,48.81l0.01-39.24c-9,0.05-17.9,0.97-26.6,2.7L150,48.81z"/>
					</g>
					<g>
						<path class="st4" d="M52.68,119.37l-37.31-12.14c-2.73,8.58-4.61,17.33-5.65,26.13L52.68,119.37z"/>
					</g>
					<g>
						<path class="st4" d="M89.84,233.54l-23.08,31.73c7.31,5.25,15.05,9.74,23.1,13.44L89.84,233.54z"/>
					</g>
					<g>
						<path class="st4" d="M209.82,233.54l23.05,31.75c7.25-5.33,13.91-11.31,19.93-17.82L209.82,233.54z"/>
					</g>
					<g>
						<path class="st4" d="M246.92,119.37l37.32-12.11c-2.83-8.55-6.45-16.72-10.79-24.46L246.92,119.37z"/>
					</g>
					<polygon class="st3" points="56.74,181.17 8.56,146.09 64.53,127.9 112.71,162.99 					"/>
					<polygon class="st4" points="56.74,181.17 38.39,237.88 94.28,219.72 112.71,162.99 					"/>
					<polygon class="st3" points="150,248.89 101.6,283.98 101.6,224.96 150,189.87 					"/>
					<polygon class="st4" points="149.51,248.89 197.91,283.98 197.91,225.04 149.51,189.87 					"/>
					<polygon class="st3" points="242.92,181.28 261.28,237.98 205.32,219.8 186.95,163.09 					"/>
					<polygon class="st4" points="242.92,181.28 291.11,146.19 235.21,128.03 186.95,163.09 					"/>
					<polygon class="st3" points="207.46,71.8 266.91,71.86 232.5,119.22 173,119.22 					"/>
					<polygon class="st4" points="207.42,71.82 188.95,15.15 154.4,62.7 172.88,119.37 					"/>
					<g>
						<path class="st3" d="M150,292.28c12.1,0,23.84-1.53,35.05-4.38L150,262.45V292.28z"/>
					</g>
					<g>
						<path class="st3" d="M284.23,194.61c3.74-11.51,5.92-23.14,6.66-34.69l-35.04,25.47L284.23,194.61z"/>
					</g>
					<g>
						<path class="st3" d="M232.89,36.56c-9.79-7.11-20.18-12.78-30.93-17.06l13.4,41.19L232.89,36.56z"/>
					</g>
					<g>
						<path class="st3" d="M66.71,36.41c-9.79,7.11-18.39,15.24-25.78,24.15l43.32-0.01L66.71,36.41z"/>
					</g>
					<g>
						<path class="st3" d="M15.36,194.61c3.74,11.51,8.81,22.21,15,31.98l13.38-41.2L15.36,194.61z"/>
					</g>
				</g>
			</g>
		</g>
	</g>
	<g id="Woodland_Green" class="st1">
		<g class="st13">
			<g id="Guides_00000065792472819166428530000008270136127619090605_" class="st1">
			</g>
			<g id="Symbol_Art_00000130632747741277026220000006312735202595398805_">
				<rect x="-28" y="-26" class="st19" width="354" height="354"/>
				<g>
					<polygon class="st11" points="91.11,71.19 109.7,14.2 144.48,62.08 125.9,119.07 					"/>
					<polygon class="st8" points="91.06,71.35 31.35,71.41 65.96,119.04 125.71,119.04 					"/>
					<g>
						<path class="st8" d="M149,48.11l0.01-39.46c-9.05,0.05-18,0.97-26.75,2.72L149,48.11z"/>
					</g>
					<g>
						<path class="st8" d="M51.2,119.07l-37.52-12.21c-2.75,8.62-4.64,17.42-5.68,26.27L51.2,119.07z"/>
					</g>
					<g>
						<path class="st8" d="M88.5,233.9l-23.21,31.91c7.35,5.28,15.14,9.79,23.24,13.52L88.5,233.9z"/>
					</g>
					<g>
						<path class="st8" d="M209.24,233.9l23.18,31.93c7.29-5.36,13.99-11.37,20.04-17.92L209.24,233.9z"/>
					</g>
					<g>
						<path class="st8" d="M246.55,119.07l37.53-12.18c-2.85-8.59-6.49-16.82-10.85-24.6L246.55,119.07z"/>
					</g>
					<polygon class="st11" points="55.3,181.23 6.84,145.94 63.12,127.66 111.58,162.94 					"/>
					<polygon class="st8" points="55.3,181.23 36.83,238.26 93.04,219.99 111.58,162.94 					"/>
					<polygon class="st11" points="149,249.33 100.32,284.62 100.32,225.27 149,189.98 					"/>
					<polygon class="st8" points="149,249.33 197.68,284.62 197.68,225.34 149,189.98 					"/>
					<polygon class="st11" points="242.53,181.33 260.99,238.36 204.71,220.07 186.25,163.04 					"/>
					<polygon class="st8" points="242.53,181.33 290.99,146.05 234.78,127.78 186.25,163.04 					"/>
					<polygon class="st11" points="206.86,71.35 266.65,71.41 232.05,119.04 172.22,119.04 					"/>
					<polygon class="st8" points="206.83,71.26 188.25,14.26 153.51,62.08 172.1,119.07 					"/>
					<g>
						<path class="st11" d="M149,292.97c12.17,0,23.98-1.53,35.25-4.41L149,262.97V292.97z"/>
					</g>
					<g>
						<path class="st11" d="M284.08,194.74c3.76-11.57,5.95-23.28,6.7-34.88l-35.24,25.61L284.08,194.74z"/>
					</g>
					<g>
						<path class="st11" d="M232.44,35.8c-9.84-7.15-20.3-12.85-31.11-17.15l13.47,41.43L232.44,35.8z"/>
					</g>
					<g>
						<path class="st11" d="M65.32,35.76c-9.84,7.15-18.5,15.33-25.93,24.28l43.56-0.01L65.32,35.76z"/>
					</g>
					<g>
						<path class="st11" d="M13.68,194.74c3.76,11.57,8.86,22.33,15.08,32.16l13.45-41.43L13.68,194.74z"/>
					</g>
				</g>
			</g>
		</g>
	</g>
</g>
<g id="_x31__Line_Text" class="st1">
	<g class="st13">
		<path class="st17" d="M394.3,162.54v53.9h-10.01v-23.1h-27.87v23.1h-10.01v-53.9h10.01v22.25h27.87v-22.25H394.3z"/>
		<path class="st17" d="M412.8,214.29c-3.34-1.8-5.94-4.3-7.82-7.51c-1.87-3.21-2.81-6.84-2.81-10.9c0-4.05,0.94-7.67,2.81-10.86
			c1.87-3.18,4.48-5.67,7.82-7.47c3.34-1.8,7.08-2.7,11.24-2.7c4.21,0,7.98,0.9,11.32,2.7c3.34,1.8,5.94,4.29,7.82,7.47
			c1.87,3.18,2.81,6.8,2.81,10.86c0,4.06-0.94,7.69-2.81,10.9c-1.87,3.21-4.48,5.71-7.82,7.51c-3.34,1.8-7.11,2.7-11.32,2.7
			C419.89,216.98,416.14,216.08,412.8,214.29z M432.82,205.2c2.31-2.36,3.47-5.47,3.47-9.32c0-3.85-1.16-6.96-3.47-9.32
			c-2.31-2.36-5.24-3.54-8.78-3.54s-6.46,1.18-8.74,3.54c-2.29,2.36-3.43,5.47-3.43,9.32c0,3.85,1.14,6.96,3.43,9.32
			c2.28,2.36,5.2,3.54,8.74,3.54S430.51,207.56,432.82,205.2z"/>
		<path class="st17" d="M516.91,179.37c3.03,3,4.54,7.51,4.54,13.51v23.56h-9.62v-22.33c0-3.59-0.8-6.3-2.39-8.12
			c-1.59-1.82-3.88-2.73-6.85-2.73c-3.23,0-5.83,1.07-7.78,3.2c-1.95,2.13-2.93,5.17-2.93,9.12v20.87h-9.62v-22.33
			c0-3.59-0.8-6.3-2.39-8.12c-1.59-1.82-3.88-2.73-6.85-2.73c-3.29,0-5.89,1.05-7.82,3.16c-1.93,2.11-2.89,5.16-2.89,9.16v20.87
			h-9.62v-41.12h9.16v5.24c1.54-1.85,3.46-3.26,5.77-4.24c2.31-0.97,4.88-1.46,7.7-1.46c3.08,0,5.81,0.58,8.2,1.73
			c2.39,1.16,4.27,2.86,5.66,5.12c1.69-2.16,3.88-3.84,6.54-5.04c2.67-1.21,5.62-1.81,8.85-1.81
			C509.77,174.86,513.88,176.36,516.91,179.37z"/>
		<path class="st17" d="M569.69,198.96h-32.26c0.56,3.03,2.04,5.43,4.43,7.2c2.39,1.77,5.35,2.66,8.89,2.66
			c4.52,0,8.24-1.49,11.17-4.47l5.16,5.93c-1.85,2.21-4.18,3.88-7.01,5c-2.82,1.13-6.01,1.69-9.55,1.69c-4.52,0-8.5-0.9-11.94-2.7
			c-3.44-1.8-6.1-4.3-7.97-7.51c-1.87-3.21-2.81-6.84-2.81-10.9c0-4,0.91-7.61,2.73-10.82c1.82-3.21,4.35-5.71,7.58-7.51
			c3.23-1.8,6.88-2.7,10.93-2.7c4,0,7.58,0.89,10.74,2.66c3.16,1.77,5.62,4.26,7.39,7.47s2.66,6.92,2.66,11.13
			C569.84,196.78,569.79,197.73,569.69,198.96z M541.24,185.29c-2.13,1.82-3.43,4.25-3.89,7.28h23.33
			c-0.41-2.98-1.67-5.39-3.77-7.24c-2.11-1.85-4.72-2.77-7.85-2.77C545.97,182.56,543.37,183.47,541.24,185.29z"/>
		<path class="st17" d="M576.5,159.31h9.62v57.13h-9.62V159.31z"/>
		<path class="st17" d="M625.8,179.21c3.21,2.9,4.81,7.28,4.81,13.13v24.1h-9.09v-5c-1.18,1.8-2.86,3.17-5.04,4.12
			c-2.18,0.95-4.81,1.42-7.89,1.42s-5.77-0.53-8.08-1.58c-2.31-1.05-4.09-2.51-5.35-4.39c-1.26-1.87-1.89-3.99-1.89-6.35
			c0-3.7,1.37-6.66,4.12-8.89c2.75-2.23,7.07-3.35,12.97-3.35h10.63v-0.62c0-2.88-0.86-5.08-2.58-6.62
			c-1.72-1.54-4.27-2.31-7.66-2.31c-2.31,0-4.58,0.36-6.81,1.08c-2.23,0.72-4.12,1.72-5.66,3l-3.77-7.01
			c2.16-1.64,4.75-2.9,7.78-3.77c3.03-0.87,6.24-1.31,9.62-1.31C617.96,174.86,622.59,176.31,625.8,179.21z M617.02,208.32
			c1.87-1.1,3.2-2.68,3.97-4.74v-4.77h-9.93c-5.54,0-8.32,1.82-8.32,5.47c0,1.75,0.69,3.13,2.08,4.16c1.39,1.03,3.31,1.54,5.77,1.54
			C613,209.97,615.15,209.42,617.02,208.32z"/>
		<path class="st17" d="M675.72,179.4c3.13,3.03,4.7,7.52,4.7,13.48v23.56h-9.62v-22.33c0-3.59-0.85-6.3-2.54-8.12
			c-1.69-1.82-4.11-2.73-7.24-2.73c-3.54,0-6.34,1.07-8.39,3.2c-2.05,2.13-3.08,5.2-3.08,9.2v20.79h-9.62v-41.12h9.16v5.31
			c1.59-1.9,3.59-3.34,6.01-4.31c2.41-0.97,5.13-1.46,8.16-1.46C668.43,174.86,672.58,176.38,675.72,179.4z"/>
		<path class="st17" d="M730.43,159.31v57.13h-9.24v-5.31c-1.59,1.95-3.55,3.42-5.89,4.39s-4.92,1.46-7.74,1.46
			c-3.95,0-7.51-0.87-10.66-2.62c-3.16-1.74-5.63-4.22-7.43-7.43c-1.8-3.21-2.7-6.89-2.7-11.05c0-4.16,0.9-7.83,2.7-11.01
			c1.8-3.18,4.27-5.65,7.43-7.39c3.16-1.74,6.71-2.62,10.66-2.62c2.72,0,5.21,0.46,7.47,1.39c2.26,0.92,4.18,2.31,5.78,4.16v-21.1
			H730.43z M714.96,207.16c1.85-1.05,3.31-2.55,4.39-4.5c1.08-1.95,1.62-4.21,1.62-6.78c0-2.57-0.54-4.83-1.62-6.78
			c-1.08-1.95-2.54-3.45-4.39-4.5c-1.85-1.05-3.93-1.58-6.24-1.58c-2.31,0-4.39,0.53-6.24,1.58c-1.85,1.05-3.31,2.55-4.39,4.5
			c-1.08,1.95-1.62,4.21-1.62,6.78c0,2.57,0.54,4.83,1.62,6.78c1.08,1.95,2.54,3.45,4.39,4.5c1.85,1.05,3.93,1.58,6.24,1.58
			C711.03,208.74,713.11,208.22,714.96,207.16z"/>
		<path class="st17" d="M768.66,215.44c-3.88-1.18-6.94-2.75-9.2-4.7l3.46-7.78c2.21,1.75,4.92,3.17,8.12,4.27
			c3.21,1.1,6.43,1.66,9.66,1.66c4,0,6.99-0.64,8.97-1.92c1.97-1.28,2.96-2.98,2.96-5.08c0-1.54-0.55-2.81-1.66-3.81
			c-1.1-1-2.5-1.78-4.2-2.35c-1.69-0.56-4-1.21-6.93-1.92c-4.11-0.97-7.43-1.95-9.97-2.93c-2.54-0.97-4.72-2.5-6.54-4.58
			c-1.82-2.08-2.73-4.89-2.73-8.43c0-2.98,0.81-5.68,2.43-8.12c1.62-2.44,4.05-4.38,7.32-5.81c3.26-1.44,7.25-2.16,11.97-2.16
			c3.28,0,6.52,0.41,9.7,1.23c3.18,0.82,5.93,2,8.24,3.54l-3.16,7.78c-2.36-1.39-4.83-2.44-7.39-3.16
			c-2.57-0.72-5.06-1.08-7.47-1.08c-3.95,0-6.89,0.67-8.82,2c-1.93,1.33-2.89,3.11-2.89,5.31c0,1.54,0.55,2.8,1.66,3.77
			c1.1,0.98,2.5,1.75,4.2,2.31c1.69,0.57,4,1.21,6.93,1.92c4,0.92,7.29,1.89,9.86,2.89c2.57,1,4.76,2.53,6.58,4.58
			c1.82,2.05,2.73,4.83,2.73,8.32c0,2.98-0.81,5.67-2.43,8.08c-1.62,2.41-4.07,4.34-7.35,5.78c-3.29,1.44-7.29,2.16-12.01,2.16
			C776.55,217.21,772.54,216.62,768.66,215.44z"/>
		<path class="st17" d="M848.3,198.96h-32.26c0.56,3.03,2.04,5.43,4.43,7.2c2.39,1.77,5.35,2.66,8.89,2.66
			c4.52,0,8.24-1.49,11.17-4.47l5.16,5.93c-1.85,2.21-4.18,3.88-7.01,5c-2.82,1.13-6.01,1.69-9.55,1.69c-4.52,0-8.5-0.9-11.93-2.7
			c-3.44-1.8-6.1-4.3-7.97-7.51c-1.87-3.21-2.81-6.84-2.81-10.9c0-4,0.91-7.61,2.73-10.82c1.82-3.21,4.35-5.71,7.58-7.51
			c3.23-1.8,6.88-2.7,10.93-2.7c4,0,7.58,0.89,10.74,2.66c3.16,1.77,5.62,4.26,7.39,7.47c1.77,3.21,2.66,6.92,2.66,11.13
			C848.46,196.78,848.4,197.73,848.3,198.96z M819.85,185.29c-2.13,1.82-3.43,4.25-3.89,7.28h23.33c-0.41-2.98-1.67-5.39-3.77-7.24
			c-2.11-1.85-4.72-2.77-7.85-2.77C824.59,182.56,821.98,183.47,819.85,185.29z"/>
		<path class="st17" d="M863.13,214.29c-3.39-1.8-6.03-4.3-7.93-7.51c-1.9-3.21-2.85-6.84-2.85-10.9c0-4.05,0.95-7.67,2.85-10.86
			c1.9-3.18,4.53-5.67,7.89-7.47c3.36-1.8,7.2-2.7,11.51-2.7c4.05,0,7.61,0.82,10.67,2.46c3.05,1.64,5.35,4,6.89,7.08l-7.39,4.31
			c-1.18-1.9-2.66-3.32-4.43-4.27c-1.77-0.95-3.71-1.42-5.81-1.42c-3.59,0-6.57,1.17-8.93,3.5c-2.36,2.34-3.54,5.45-3.54,9.36
			s1.17,7.02,3.5,9.36c2.33,2.34,5.32,3.5,8.97,3.5c2.1,0,4.04-0.47,5.81-1.42c1.77-0.95,3.25-2.37,4.43-4.27l7.39,4.31
			c-1.59,3.08-3.92,5.46-6.97,7.12c-3.05,1.67-6.58,2.5-10.59,2.5C870.34,216.98,866.52,216.08,863.13,214.29z"/>
		<path class="st17" d="M937.31,175.32v41.12h-9.16v-5.24c-1.54,1.85-3.46,3.27-5.78,4.27c-2.31,1-4.8,1.5-7.47,1.5
			c-5.49,0-9.82-1.53-12.97-4.58c-3.16-3.05-4.74-7.58-4.74-13.59v-23.49h9.62v22.18c0,3.7,0.83,6.46,2.5,8.28
			c1.67,1.82,4.04,2.73,7.12,2.73c3.44,0,6.17-1.07,8.2-3.2c2.03-2.13,3.04-5.2,3.04-9.2v-20.79H937.31z"/>
		<path class="st17" d="M970.69,174.86v9.16c-0.82-0.15-1.57-0.23-2.23-0.23c-3.75,0-6.67,1.09-8.78,3.27
			c-2.11,2.18-3.16,5.33-3.16,9.43v19.94h-9.62v-41.12h9.16v6.01C958.83,177.02,963.71,174.86,970.69,174.86z"/>
		<path class="st17" d="M976.27,166.89c-1.18-1.1-1.77-2.48-1.77-4.12c0-1.64,0.59-3.01,1.77-4.12c1.18-1.1,2.64-1.66,4.39-1.66
			c1.74,0,3.21,0.53,4.39,1.58c1.18,1.05,1.77,2.38,1.77,3.96c0,1.69-0.58,3.12-1.73,4.27c-1.16,1.16-2.63,1.73-4.43,1.73
			C978.91,168.55,977.45,168,976.27,166.89z M975.81,175.32h9.62v41.12h-9.62V175.32z"/>
		<path class="st17" d="M1020.09,214.21c-1.13,0.92-2.5,1.62-4.12,2.08c-1.62,0.46-3.32,0.69-5.12,0.69
			c-4.52,0-8.01-1.18-10.47-3.54c-2.46-2.36-3.7-5.8-3.7-10.32v-19.79h-6.78v-7.7h6.78v-9.39h9.62v9.39h11.01v7.7h-11.01v19.56
			c0,2,0.49,3.53,1.46,4.58c0.97,1.05,2.39,1.58,4.24,1.58c2.16,0,3.95-0.56,5.39-1.69L1020.09,214.21z"/>
		<path class="st17" d="M1065.55,175.32l-19.25,44.43c-1.8,4.47-3.98,7.61-6.55,9.43c-2.57,1.82-5.67,2.73-9.32,2.73
			c-2.05,0-4.08-0.33-6.08-1s-3.64-1.59-4.93-2.77l3.85-7.08c0.92,0.87,2.01,1.57,3.27,2.08c1.26,0.51,2.53,0.77,3.81,0.77
			c1.69,0,3.09-0.44,4.2-1.31c1.1-0.87,2.12-2.34,3.04-4.39l0.69-1.62l-17.94-41.27h10.01l12.94,30.42l13.01-30.42H1065.55z"/>
	</g>
</g>
<g id="_x32__Lines_Text">
	<g>
		<path class="st3" d="M362.15,213.79c-4.27-2.33-7.62-5.54-10.05-9.64c-2.43-4.1-3.64-8.72-3.64-13.88c0-5.15,1.22-9.77,3.68-13.88
			c2.45-4.1,5.81-7.31,10.09-9.64c4.27-2.33,9.06-3.49,14.36-3.49c4.3,0,8.22,0.75,11.78,2.25c3.55,1.5,6.55,3.68,9,6.53l-6.3,5.93
			c-3.8-4.1-8.48-6.15-14.02-6.15c-3.6,0-6.83,0.79-9.67,2.36c-2.85,1.58-5.08,3.76-6.68,6.56c-1.6,2.8-2.4,5.98-2.4,9.52
			c0,3.55,0.8,6.73,2.4,9.53c1.6,2.8,3.83,4.99,6.68,6.56c2.85,1.58,6.07,2.36,9.67,2.36c5.55,0,10.22-2.07,14.02-6.23l6.3,6
			c-2.45,2.85-5.46,5.02-9.04,6.52c-3.58,1.5-7.51,2.25-11.81,2.25C371.21,217.28,366.42,216.12,362.15,213.79z"/>
		<path class="st3" d="M409.94,214.43c-3.25-1.75-5.79-4.19-7.61-7.31c-1.83-3.12-2.74-6.66-2.74-10.61c0-3.95,0.91-7.47,2.74-10.58
			c1.82-3.1,4.36-5.52,7.61-7.28c3.25-1.75,6.9-2.62,10.95-2.62c4.1,0,7.77,0.88,11.02,2.62c3.25,1.75,5.79,4.18,7.61,7.28
			c1.82,3.1,2.74,6.63,2.74,10.58c0,3.95-0.91,7.49-2.74,10.61c-1.83,3.12-4.36,5.56-7.61,7.31c-3.25,1.75-6.93,2.62-11.02,2.62
			C416.84,217.05,413.19,216.18,409.94,214.43z M429.44,205.58c2.25-2.3,3.38-5.33,3.38-9.08s-1.12-6.77-3.38-9.08
			c-2.25-2.3-5.1-3.45-8.55-3.45c-3.45,0-6.29,1.15-8.51,3.45c-2.23,2.3-3.34,5.33-3.34,9.08s1.11,6.78,3.34,9.08
			c2.22,2.3,5.06,3.45,8.51,3.45C424.34,209.03,427.19,207.88,429.44,205.58z"/>
		<path class="st3" d="M511.55,180.42c2.95,2.92,4.42,7.31,4.42,13.16v22.95h-9.38v-21.75c0-3.5-0.78-6.14-2.33-7.91
			c-1.55-1.77-3.78-2.66-6.67-2.66c-3.15,0-5.68,1.04-7.58,3.11c-1.9,2.08-2.85,5.04-2.85,8.89v20.32h-9.38v-21.75
			c0-3.5-0.78-6.14-2.33-7.91c-1.55-1.77-3.78-2.66-6.67-2.66c-3.2,0-5.74,1.03-7.61,3.07c-1.88,2.05-2.81,5.03-2.81,8.93v20.32H449
			v-40.05h8.93v5.1c1.5-1.8,3.38-3.17,5.62-4.12c2.25-0.95,4.75-1.43,7.5-1.43c3,0,5.66,0.56,7.99,1.69s4.16,2.79,5.51,4.99
			c1.65-2.1,3.77-3.74,6.38-4.91c2.6-1.17,5.47-1.76,8.62-1.76C504.6,176.03,508.6,177.49,511.55,180.42z"/>
		<path class="st3" d="M587.75,180.42c2.95,2.92,4.42,7.31,4.42,13.16v22.95h-9.38v-21.75c0-3.5-0.78-6.14-2.33-7.91
			c-1.55-1.77-3.78-2.66-6.67-2.66c-3.15,0-5.68,1.04-7.58,3.11c-1.9,2.08-2.85,5.04-2.85,8.89v20.32H554v-21.75
			c0-3.5-0.78-6.14-2.33-7.91c-1.55-1.77-3.78-2.66-6.67-2.66c-3.2,0-5.74,1.03-7.61,3.07c-1.88,2.05-2.81,5.03-2.81,8.93v20.32
			h-9.38v-40.05h8.93v5.1c1.5-1.8,3.38-3.17,5.62-4.12c2.25-0.95,4.75-1.43,7.5-1.43c3,0,5.66,0.56,7.99,1.69s4.16,2.79,5.51,4.99
			c1.65-2.1,3.77-3.74,6.38-4.91c2.6-1.17,5.47-1.76,8.62-1.76C580.8,176.03,584.8,177.49,587.75,180.42z"/>
		<path class="st3" d="M601.65,168.27c-1.15-1.07-1.73-2.41-1.73-4.01c0-1.6,0.57-2.94,1.73-4.01c1.15-1.07,2.57-1.61,4.27-1.61
			c1.7,0,3.12,0.51,4.27,1.54c1.15,1.03,1.73,2.31,1.73,3.86c0,1.65-0.56,3.04-1.69,4.16s-2.56,1.69-4.31,1.69
			C604.22,169.88,602.8,169.34,601.65,168.27z M601.2,176.48h9.38v40.05h-9.38V176.48z"/>
		<path class="st3" d="M624.05,215.78c-3.1-0.85-5.58-1.92-7.42-3.22l3.6-7.12c1.8,1.2,3.96,2.16,6.49,2.89
			c2.52,0.73,5.01,1.09,7.46,1.09c5.6,0,8.4-1.47,8.4-4.42c0-1.4-0.71-2.38-2.14-2.93c-1.43-0.55-3.71-1.07-6.86-1.57
			c-3.3-0.5-5.99-1.08-8.06-1.73c-2.08-0.65-3.88-1.79-5.4-3.41c-1.53-1.62-2.29-3.89-2.29-6.79c0-3.8,1.59-6.84,4.76-9.11
			c3.17-2.27,7.46-3.41,12.86-3.41c2.75,0,5.5,0.31,8.25,0.94c2.75,0.63,5,1.46,6.75,2.51l-3.6,7.12c-3.4-2-7.23-3-11.47-3
			c-2.75,0-4.84,0.41-6.26,1.24c-1.42,0.83-2.14,1.91-2.14,3.26c0,1.5,0.76,2.56,2.29,3.19c1.52,0.62,3.89,1.21,7.09,1.76
			c3.2,0.5,5.82,1.08,7.88,1.72c2.05,0.65,3.81,1.75,5.29,3.3c1.47,1.55,2.21,3.75,2.21,6.6c0,3.75-1.62,6.75-4.88,9
			c-3.25,2.25-7.68,3.38-13.27,3.38C630.32,217.05,627.15,216.63,624.05,215.78z"/>
		<path class="st3" d="M661.51,215.78c-3.1-0.85-5.58-1.92-7.42-3.22l3.6-7.12c1.8,1.2,3.96,2.16,6.49,2.89
			c2.52,0.73,5.01,1.09,7.46,1.09c5.6,0,8.4-1.47,8.4-4.42c0-1.4-0.71-2.38-2.14-2.93c-1.43-0.55-3.71-1.07-6.86-1.57
			c-3.3-0.5-5.99-1.08-8.06-1.73c-2.08-0.65-3.88-1.79-5.4-3.41c-1.53-1.62-2.29-3.89-2.29-6.79c0-3.8,1.59-6.84,4.76-9.11
			c3.17-2.27,7.46-3.41,12.86-3.41c2.75,0,5.5,0.31,8.25,0.94c2.75,0.63,5,1.46,6.75,2.51l-3.6,7.12c-3.4-2-7.23-3-11.47-3
			c-2.75,0-4.84,0.41-6.26,1.24c-1.42,0.83-2.14,1.91-2.14,3.26c0,1.5,0.76,2.56,2.29,3.19c1.52,0.62,3.89,1.21,7.09,1.76
			c3.2,0.5,5.82,1.08,7.88,1.72c2.05,0.65,3.81,1.75,5.29,3.3c1.47,1.55,2.21,3.75,2.21,6.6c0,3.75-1.62,6.75-4.88,9
			c-3.25,2.25-7.68,3.38-13.27,3.38C667.79,217.05,664.61,216.63,661.51,215.78z"/>
		<path class="st3" d="M695.82,168.27c-1.15-1.07-1.73-2.41-1.73-4.01c0-1.6,0.57-2.94,1.73-4.01c1.15-1.07,2.57-1.61,4.27-1.61
			c1.7,0,3.12,0.51,4.28,1.54c1.15,1.03,1.72,2.31,1.72,3.86c0,1.65-0.56,3.04-1.69,4.16s-2.56,1.69-4.31,1.69
			C698.39,169.88,696.97,169.34,695.82,168.27z M695.37,176.48h9.38v40.05h-9.38V176.48z"/>
		<path class="st3" d="M721.72,214.43c-3.25-1.75-5.79-4.19-7.61-7.31c-1.83-3.12-2.74-6.66-2.74-10.61c0-3.95,0.91-7.47,2.74-10.58
			c1.83-3.1,4.36-5.52,7.61-7.28c3.25-1.75,6.9-2.62,10.95-2.62c4.1,0,7.77,0.88,11.03,2.62c3.25,1.75,5.79,4.18,7.61,7.28
			c1.83,3.1,2.74,6.63,2.74,10.58c0,3.95-0.91,7.49-2.74,10.61c-1.83,3.12-4.36,5.56-7.61,7.31c-3.25,1.75-6.93,2.62-11.03,2.62
			C728.62,217.05,724.97,216.18,721.72,214.43z M741.22,205.58c2.25-2.3,3.38-5.33,3.38-9.08s-1.12-6.77-3.38-9.08
			c-2.25-2.3-5.1-3.45-8.55-3.45c-3.45,0-6.29,1.15-8.51,3.45c-2.23,2.3-3.34,5.33-3.34,9.08s1.11,6.78,3.34,9.08
			c2.22,2.3,5.06,3.45,8.51,3.45C736.12,209.03,738.97,207.88,741.22,205.58z"/>
		<path class="st3" d="M795.66,180.45c3.05,2.95,4.58,7.33,4.58,13.12v22.95h-9.38v-21.75c0-3.5-0.83-6.14-2.48-7.91
			c-1.65-1.77-4-2.66-7.05-2.66c-3.45,0-6.18,1.04-8.17,3.11c-2,2.08-3,5.06-3,8.96v20.25h-9.38v-40.05h8.92v5.17
			c1.55-1.85,3.5-3.25,5.85-4.2c2.35-0.95,5-1.43,7.95-1.43C788.55,176.03,792.6,177.5,795.66,180.45z"/>
		<path class="st3" d="M838.7,214.43c-3.25-1.75-5.79-4.19-7.61-7.31c-1.83-3.12-2.74-6.66-2.74-10.61c0-3.95,0.91-7.47,2.74-10.58
			c1.82-3.1,4.36-5.52,7.61-7.28c3.25-1.75,6.9-2.62,10.95-2.62c4.1,0,7.77,0.88,11.02,2.62c3.25,1.75,5.79,4.18,7.61,7.28
			c1.82,3.1,2.74,6.63,2.74,10.58c0,3.95-0.91,7.49-2.74,10.61c-1.83,3.12-4.36,5.56-7.61,7.31c-3.25,1.75-6.93,2.62-11.02,2.62
			C845.6,217.05,841.95,216.18,838.7,214.43z M858.2,205.58c2.25-2.3,3.38-5.33,3.38-9.08s-1.12-6.77-3.38-9.08
			c-2.25-2.3-5.1-3.45-8.55-3.45s-6.29,1.15-8.51,3.45c-2.23,2.3-3.34,5.33-3.34,9.08s1.11,6.78,3.34,9.08
			c2.22,2.3,5.06,3.45,8.51,3.45S855.95,207.88,858.2,205.58z"/>
		<path class="st3" d="M912.64,180.45c3.05,2.95,4.58,7.33,4.58,13.12v22.95h-9.38v-21.75c0-3.5-0.83-6.14-2.48-7.91
			c-1.65-1.77-4-2.66-7.05-2.66c-3.45,0-6.18,1.04-8.17,3.11c-2,2.08-3,5.06-3,8.96v20.25h-9.38v-40.05h8.92v5.17
			c1.55-1.85,3.5-3.25,5.85-4.2c2.35-0.95,5-1.43,7.95-1.43C905.54,176.03,909.59,177.5,912.64,180.45z"/>
		<path class="st3" d="M972.71,214.35c-1.1,0.9-2.44,1.57-4.01,2.02c-1.57,0.45-3.24,0.67-4.99,0.67c-4.4,0-7.8-1.15-10.2-3.45
			c-2.4-2.3-3.6-5.65-3.6-10.05v-19.28h-6.6v-7.5h6.6v-9.15h9.38v9.15h10.72v7.5h-10.72v19.05c0,1.95,0.47,3.44,1.42,4.46
			c0.95,1.03,2.33,1.54,4.12,1.54c2.1,0,3.85-0.55,5.25-1.65L972.71,214.35z"/>
		<path class="st3" d="M1012.29,180.45c3.05,2.95,4.57,7.33,4.57,13.12v22.95h-9.37v-21.75c0-3.5-0.83-6.14-2.47-7.91
			c-1.65-1.77-4-2.66-7.05-2.66c-3.45,0-6.18,1.04-8.18,3.11c-2,2.08-3,5.06-3,8.96v20.25h-9.38v-55.65h9.38v20.25
			c1.55-1.65,3.46-2.91,5.74-3.79c2.27-0.87,4.81-1.31,7.61-1.31C1005.19,176.03,1009.24,177.5,1012.29,180.45z"/>
		<path class="st3" d="M1063.91,199.5h-31.43c0.55,2.95,1.99,5.29,4.31,7.01c2.33,1.72,5.21,2.59,8.66,2.59
			c4.4,0,8.02-1.45,10.88-4.35l5.02,5.77c-1.8,2.15-4.08,3.78-6.82,4.88c-2.75,1.1-5.85,1.65-9.3,1.65c-4.4,0-8.28-0.87-11.62-2.62
			c-3.35-1.75-5.94-4.19-7.76-7.31c-1.83-3.12-2.74-6.66-2.74-10.61c0-3.9,0.89-7.41,2.66-10.54c1.77-3.12,4.24-5.56,7.39-7.31
			c3.15-1.75,6.7-2.62,10.65-2.62c3.9,0,7.39,0.86,10.46,2.59s5.47,4.15,7.2,7.28c1.72,3.12,2.59,6.74,2.59,10.84
			C1064.06,197.38,1064.01,198.3,1063.91,199.5z M1036.2,186.19c-2.08,1.78-3.34,4.14-3.79,7.09h22.72c-0.4-2.9-1.62-5.25-3.67-7.05
			c-2.05-1.8-4.6-2.7-7.65-2.7C1040.81,183.53,1038.27,184.42,1036.2,186.19z"/>
	</g>
	<g>
		<g>
			<path class="st3" d="M354.75,289.1c-3.78-1.15-6.76-2.67-8.96-4.58l3.38-7.58c2.15,1.7,4.79,3.09,7.91,4.16
				c3.12,1.08,6.26,1.61,9.41,1.61c3.9,0,6.81-0.62,8.74-1.88c1.92-1.25,2.89-2.9,2.89-4.95c0-1.5-0.54-2.74-1.61-3.71
				c-1.08-0.97-2.44-1.74-4.09-2.29c-1.65-0.55-3.9-1.17-6.75-1.88c-4-0.95-7.24-1.9-9.71-2.85c-2.48-0.95-4.6-2.44-6.38-4.46
				c-1.78-2.03-2.66-4.76-2.66-8.21c0-2.9,0.79-5.54,2.36-7.91c1.58-2.37,3.95-4.26,7.12-5.66c3.17-1.4,7.06-2.1,11.66-2.1
				c3.2,0,6.35,0.4,9.45,1.2c3.1,0.8,5.77,1.95,8.02,3.45l-3.08,7.57c-2.3-1.35-4.7-2.37-7.2-3.07c-2.5-0.7-4.93-1.05-7.27-1.05
				c-3.85,0-6.71,0.65-8.59,1.95c-1.88,1.3-2.81,3.03-2.81,5.17c0,1.5,0.54,2.73,1.61,3.68c1.07,0.95,2.44,1.7,4.09,2.25
				c1.65,0.55,3.9,1.17,6.75,1.88c3.9,0.9,7.1,1.84,9.6,2.81c2.5,0.97,4.64,2.46,6.41,4.46c1.77,2,2.66,4.7,2.66,8.1
				c0,2.9-0.79,5.53-2.36,7.88c-1.58,2.35-3.96,4.23-7.16,5.62c-3.2,1.4-7.1,2.1-11.7,2.1C362.43,290.83,358.52,290.25,354.75,289.1
				z"/>
			<path class="st3" d="M417.87,287.9c-1.1,0.9-2.44,1.58-4.01,2.02c-1.57,0.45-3.24,0.68-4.99,0.68c-4.4,0-7.8-1.15-10.2-3.45
				s-3.6-5.65-3.6-10.05v-19.28h-6.6v-7.5h6.6v-9.15h9.38v9.15h10.73v7.5h-10.73v19.05c0,1.95,0.47,3.44,1.43,4.46
				c0.95,1.03,2.32,1.54,4.12,1.54c2.1,0,3.85-0.55,5.25-1.65L417.87,287.9z"/>
			<path class="st3" d="M451.79,253.81c3.12,2.83,4.69,7.09,4.69,12.79v23.47h-8.85v-4.88c-1.15,1.75-2.79,3.09-4.91,4.01
				c-2.13,0.92-4.69,1.39-7.69,1.39s-5.62-0.51-7.88-1.54s-3.99-2.45-5.21-4.27c-1.23-1.83-1.84-3.89-1.84-6.19
				c0-3.6,1.34-6.49,4.01-8.66c2.67-2.17,6.89-3.26,12.64-3.26h10.35v-0.6c0-2.8-0.84-4.95-2.51-6.45c-1.68-1.5-4.16-2.25-7.46-2.25
				c-2.25,0-4.46,0.35-6.64,1.05c-2.17,0.7-4.01,1.68-5.51,2.93l-3.67-6.83c2.1-1.6,4.62-2.82,7.58-3.67
				c2.95-0.85,6.07-1.28,9.38-1.28C444.15,249.58,448.66,250.99,451.79,253.81z M443.24,282.16c1.82-1.08,3.11-2.61,3.86-4.61v-4.65
				h-9.67c-5.4,0-8.1,1.78-8.1,5.33c0,1.7,0.68,3.05,2.02,4.05c1.35,1,3.23,1.5,5.62,1.5C439.33,283.78,441.41,283.24,443.24,282.16
				z"/>
			<path class="st3" d="M489.42,287.9c-1.1,0.9-2.44,1.58-4.01,2.02c-1.58,0.45-3.24,0.68-4.99,0.68c-4.4,0-7.8-1.15-10.2-3.45
				s-3.6-5.65-3.6-10.05v-19.28h-6.6v-7.5h6.6v-9.15H476v9.15h10.73v7.5H476v19.05c0,1.95,0.47,3.44,1.42,4.46
				c0.95,1.03,2.33,1.54,4.12,1.54c2.1,0,3.85-0.55,5.25-1.65L489.42,287.9z"/>
			<path class="st3" d="M532.14,250.03v40.05h-8.92v-5.1c-1.5,1.8-3.38,3.19-5.62,4.16s-4.68,1.46-7.28,1.46
				c-5.35,0-9.56-1.49-12.64-4.46c-3.08-2.97-4.61-7.39-4.61-13.24v-22.88h9.38v21.6c0,3.6,0.81,6.29,2.44,8.06
				c1.62,1.78,3.94,2.66,6.94,2.66c3.35,0,6.01-1.04,7.99-3.11c1.97-2.07,2.96-5.06,2.96-8.96v-20.25H532.14z"/>
			<path class="st3" d="M545.56,289.33c-3.1-0.85-5.58-1.92-7.42-3.22l3.6-7.12c1.8,1.2,3.96,2.16,6.49,2.89
				c2.52,0.73,5.01,1.09,7.46,1.09c5.6,0,8.4-1.47,8.4-4.42c0-1.4-0.71-2.37-2.14-2.92c-1.42-0.55-3.71-1.08-6.86-1.58
				c-3.3-0.5-5.99-1.08-8.06-1.73c-2.08-0.65-3.88-1.79-5.4-3.41c-1.53-1.62-2.29-3.89-2.29-6.79c0-3.8,1.59-6.84,4.76-9.11
				c3.17-2.27,7.46-3.41,12.86-3.41c2.75,0,5.5,0.31,8.25,0.94c2.75,0.63,5,1.46,6.75,2.51l-3.6,7.12c-3.4-2-7.23-3-11.47-3
				c-2.75,0-4.84,0.41-6.26,1.24s-2.14,1.91-2.14,3.26c0,1.5,0.76,2.56,2.29,3.19c1.52,0.63,3.89,1.21,7.09,1.76
				c3.2,0.5,5.82,1.08,7.88,1.72c2.05,0.65,3.81,1.75,5.29,3.3c1.47,1.55,2.21,3.75,2.21,6.6c0,3.75-1.62,6.75-4.88,9
				c-3.25,2.25-7.68,3.38-13.27,3.38C551.83,290.6,548.66,290.17,545.56,289.33z"/>
			<path class="st3" d="M607.88,287.98c-3.25-1.75-5.79-4.19-7.61-7.31c-1.83-3.12-2.74-6.66-2.74-10.61
				c0-3.95,0.91-7.47,2.74-10.57c1.82-3.1,4.36-5.52,7.61-7.28c3.25-1.75,6.9-2.62,10.95-2.62c4.1,0,7.77,0.88,11.02,2.62
				c3.25,1.75,5.79,4.18,7.61,7.28c1.83,3.1,2.74,6.62,2.74,10.57c0,3.95-0.91,7.49-2.74,10.61s-4.36,5.56-7.61,7.31
				c-3.25,1.75-6.93,2.62-11.02,2.62C614.78,290.6,611.13,289.73,607.88,287.98z M627.38,279.12c2.25-2.3,3.38-5.33,3.38-9.08
				s-1.12-6.77-3.38-9.07s-5.1-3.45-8.55-3.45c-3.45,0-6.29,1.15-8.51,3.45c-2.23,2.3-3.34,5.32-3.34,9.07s1.11,6.78,3.34,9.08
				c2.22,2.3,5.06,3.45,8.51,3.45C622.28,282.58,625.13,281.43,627.38,279.12z"/>
			<path class="st3" d="M657.05,247.92v2.4h11.03v7.5h-10.73v32.25h-9.38v-32.25h-6.6v-7.5h6.6v-2.55c0-4.3,1.25-7.69,3.75-10.16
				c2.5-2.47,6.02-3.71,10.58-3.71c3.6,0,6.42,0.73,8.47,2.17l-2.62,7.05c-1.6-1.1-3.33-1.65-5.17-1.65
				C659.03,241.48,657.05,243.63,657.05,247.92z"/>
			<path class="st3" d="M771.5,237.58l-17.4,52.5h-10.35l-12.98-38.85l-13.2,38.85h-10.42l-17.4-52.5h10.12l13.05,39.9l13.58-39.9h9
				l13.27,40.12l13.42-40.12H771.5z"/>
			<path class="st3" d="M781.32,287.98c-3.25-1.75-5.79-4.19-7.61-7.31c-1.83-3.12-2.74-6.66-2.74-10.61
				c0-3.95,0.91-7.47,2.74-10.57c1.82-3.1,4.36-5.52,7.61-7.28c3.25-1.75,6.9-2.62,10.95-2.62c4.1,0,7.77,0.88,11.02,2.62
				c3.25,1.75,5.79,4.18,7.61,7.28c1.83,3.1,2.74,6.62,2.74,10.57c0,3.95-0.91,7.49-2.74,10.61s-4.36,5.56-7.61,7.31
				c-3.25,1.75-6.93,2.62-11.02,2.62C788.22,290.6,784.57,289.73,781.32,287.98z M800.82,279.12c2.25-2.3,3.38-5.33,3.38-9.08
				s-1.12-6.77-3.38-9.07s-5.1-3.45-8.55-3.45c-3.45,0-6.29,1.15-8.51,3.45c-2.23,2.3-3.34,5.32-3.34,9.07s1.11,6.78,3.34,9.08
				c2.22,2.3,5.06,3.45,8.51,3.45C795.72,282.58,798.57,281.43,800.82,279.12z"/>
			<path class="st3" d="M882.93,253.96c2.95,2.92,4.42,7.31,4.42,13.16v22.95h-9.38v-21.75c0-3.5-0.78-6.14-2.33-7.91
				c-1.55-1.77-3.78-2.66-6.67-2.66c-3.15,0-5.68,1.04-7.58,3.11c-1.9,2.08-2.85,5.04-2.85,8.89v20.33h-9.38v-21.75
				c0-3.5-0.78-6.14-2.33-7.91c-1.55-1.77-3.78-2.66-6.67-2.66c-3.2,0-5.74,1.03-7.61,3.08c-1.88,2.05-2.81,5.03-2.81,8.92v20.33
				h-9.38v-40.05h8.92v5.1c1.5-1.8,3.38-3.17,5.62-4.12c2.25-0.95,4.75-1.42,7.5-1.42c3,0,5.66,0.56,7.99,1.69s4.16,2.79,5.51,4.99
				c1.65-2.1,3.77-3.74,6.38-4.91c2.6-1.17,5.47-1.76,8.62-1.76C875.98,249.58,879.98,251.04,882.93,253.96z"/>
			<path class="st3" d="M934.39,273.05h-31.43c0.55,2.95,1.99,5.29,4.31,7.01c2.33,1.73,5.21,2.59,8.66,2.59
				c4.4,0,8.02-1.45,10.88-4.35l5.02,5.78c-1.8,2.15-4.08,3.78-6.82,4.88c-2.75,1.1-5.85,1.65-9.3,1.65c-4.4,0-8.28-0.88-11.62-2.62
				s-5.94-4.19-7.76-7.31c-1.83-3.12-2.74-6.66-2.74-10.61c0-3.9,0.89-7.41,2.66-10.54c1.77-3.12,4.24-5.56,7.39-7.31
				c3.15-1.75,6.7-2.62,10.65-2.62c3.9,0,7.39,0.86,10.46,2.59c3.08,1.72,5.47,4.15,7.2,7.27c1.72,3.13,2.59,6.74,2.59,10.84
				C934.54,270.93,934.49,271.85,934.39,273.05z M906.68,259.74c-2.08,1.78-3.34,4.14-3.79,7.09h22.72c-0.4-2.9-1.62-5.25-3.67-7.05
				c-2.05-1.8-4.6-2.7-7.65-2.7C911.29,257.08,908.75,257.96,906.68,259.74z"/>
			<path class="st3" d="M976,254c3.05,2.95,4.57,7.33,4.57,13.12v22.95h-9.38v-21.75c0-3.5-0.82-6.14-2.47-7.91
				c-1.65-1.77-4-2.66-7.05-2.66c-3.45,0-6.18,1.04-8.17,3.11c-2,2.08-3,5.06-3,8.96v20.25h-9.38v-40.05h8.92v5.17
				c1.55-1.85,3.5-3.25,5.85-4.2c2.35-0.95,5-1.42,7.95-1.42C968.89,249.58,972.94,251.05,976,254z"/>
		</g>
	</g>
</g>
<g id="Guides" class="st1">
</g>
</svg>
